<?xml version="1.0" standalone="no"?><svg xmlns="http://www.w3.org/2000/svg" viewBox="0 0 1440 320"><path fill="#f3f4f5" fill-opacity="1" d="M0,96L24,90.7C48,85,96,75,144,80C192,85,240,107,288,101.3C336,96,384,64,432,58.7C480,53,528,75,576,96C624,117,672,139,720,128C768,117,816,75,864,69.3C912,64,960,96,1008,144C1056,192,1104,256,1152,282.7C1200,309,1248,299,1296,250.7C1344,203,1392,117,1416,74.7L1440,32L1440,320L1416,320C1392,320,1344,320,1296,320C1248,320,1200,320,1152,320C1104,320,1056,320,1008,320C960,320,912,320,864,320C816,320,768,320,720,320C672,320,624,320,576,320C528,320,480,320,432,320C384,320,336,320,288,320C240,320,192,320,144,320C96,320,48,320,24,320L0,320Z"></path></svg>